# xmcd
#
# Track frame offsets: 
#        150
#        13038
#        21003
#        32840
#        48409
#        64053
#        77642
#        89354
#        109503
#        123636
#        132661
#        141358
#
# Disc length: 2123 seconds
#
# Revision: 0
# Processed by: cddbd v1.5.2PL0 Copyright (c) Steve Scherf et al.
# Submitted via: ExactAudioCopyFreeDBPlugin 1.0
#
DISCID=a308490c
DTITLE=Brushy One String - The King Of One String
DYEAR=1900
DGENRE=Blues
TTITLE0=Chicken In The Corn
TTITLE1=Grays In My Blues
TTITLE2=Boom Bang Dong
TTITLE3=No Man Stop Me
TTITLE4=They Are Going Down
TTITLE5=Another Song Of Praise
TTITLE6=One String Play
TTITLE7=Me Know About Jamaica
TTITLE8=Life Is For Every Man
TTITLE9=Riseup
TTITLE10=War and Crime
TTITLE11=Destiny (studio single)
EXTD=
EXTT0=
EXTT1=
EXTT2=
EXTT3=
EXTT4=
EXTT5=
EXTT6=
EXTT7=
EXTT8=
EXTT9=
EXTT10=
EXTT11=
PLAYORDER=
